# xmcd CD database file
#
# Track frame offsets:
#	150
#	18167
#	36022
#	60537
#	80075
#	98095
#	116940
#	134337
#	150492
#	175497
#	202720
#	227000
#	247600
#	270412
#
# Disc length: 4049 seconds
#
# Revision: 1
# Processed by: cddbd v1.5.1PL2 Copyright (c) Steve Scherf et al.
# Submitted via: CDex 1.51
#
DISCID=a80fcf0e
DTITLE=The Farm - Love See No Colour
DYEAR=1992
DGENRE=Rock
TTITLE0=Rising Sun
TTITLE1=Hard Times
TTITLE2=Words of Wisdom
TTITLE3=Mind
TTITLE4=Been a Long Time
TTITLE5=Don't You Want Me
TTITLE6=Rain
TTITLE7=Good Morning Sinners
TTITLE8=Love See No Colour
TTITLE9=Creepers
TTITLE10=Suzy Boo
TTITLE11=Over Again
TTITLE12=Tooth Fairy
TTITLE13=News International
EXTD=UPC 5099747202926\n\nEnd Product 472029 2 YEAR: 1992
EXTT0=
EXTT1=
EXTT2=
EXTT3=
EXTT4=
EXTT5=
EXTT6=
EXTT7=
EXTT8=
EXTT9=
EXTT10=
EXTT11=
EXTT12=
EXTT13=
PLAYORDER=
